<svg width="160" height="32" viewBox="0 0 160 32" fill="none" xmlns="http://www.w3.org/2000/svg">
<path fill-rule="evenodd" clip-rule="evenodd" d="M15.5557 0C24.147 0 31.1113 6.97345 31.1113 15.5752C31.1113 24.177 24.147 31.1504 15.5557 31.1504C6.96432 31.1504 0 24.177 0 15.5752C0 6.97345 6.96432 0 15.5557 0ZM116.444 0C125.036 0 131.999 6.97345 131.999 15.5752C131.999 24.177 125.036 31.1504 116.444 31.1504C107.853 31.1504 100.889 24.177 100.889 15.5752C100.889 6.97345 107.853 0 116.444 0ZM57.9263 0.740531C60.6158 0.739015 63.2006 1.78574 65.1345 3.65955C67.0684 5.53337 68.2 8.08749 68.2902 10.7823L68.2958 11.125V30.4099H61.7778V10.9777C61.7771 9.80231 61.3278 8.67174 60.5221 7.81789C59.7164 6.96405 58.6153 6.45166 57.4447 6.38584L57.1848 6.37876H54.6666V30.4099H48.1472V6.37876H41.0345V30.4099H34.5179V0.944425C36.1494 0.843144 37.783 0.779882 39.4174 0.75469L41.0628 0.740531H57.9263ZM141.621 0.740531H149.629C155.243 0.740531 159.815 5.20637 159.996 10.7823L160 11.125V30.4099H153.482V10.9777C153.481 9.80231 153.032 8.67174 152.226 7.81789C151.421 6.96405 150.319 6.45166 149.149 6.38584L148.889 6.37876H141.63V30.4099H135.111L135.107 0.944425C136.73 0.843227 138.355 0.779965 139.981 0.75469L141.621 0.740531ZM88.4445 0.740531C94.0897 0.740531 98.6671 5.32389 98.6671 10.9777C98.6666 12.863 98.1025 14.7049 97.0477 16.2656C95.9929 17.8264 94.4957 19.0344 92.7493 19.7338L100 30.4099H92.0008L81.9265 15.5752H87.5561C88.773 15.5756 89.9402 15.0915 90.8012 14.2294C91.6622 13.3673 92.1465 12.1977 92.1477 10.9777C92.1469 9.75748 91.6628 8.58751 90.8017 7.72509C89.9407 6.86266 88.7732 6.37839 87.5561 6.37876H79.8517V30.4099H73.3337V0.944425C75.5023 0.808467 77.6746 0.740469 79.8475 0.740531H88.4445ZM15.5557 6.52743C13.1607 6.52631 10.8634 7.47883 9.16884 9.17554C7.47429 10.8722 6.5213 13.1742 6.51943 15.5752C6.51999 16.7643 6.75416 17.9417 7.20857 19.04C7.66299 20.1384 8.32875 21.1363 9.16784 21.9767C10.0069 22.8172 11.0029 23.4837 12.099 23.9382C13.195 24.3927 14.3696 24.6264 15.5557 24.6258C16.7418 24.6264 17.9164 24.3927 19.0124 23.9382C20.1084 23.4837 21.1044 22.8172 21.9435 21.9767C22.7826 21.1363 23.4484 20.1384 23.9028 19.04C24.3572 17.9417 24.5914 16.7643 24.5919 15.5752C24.59 13.1742 23.6371 10.8722 21.9425 9.17554C20.248 7.47883 17.9506 6.52631 15.5557 6.52743ZM116.444 6.52743C115.258 6.52669 114.084 6.76013 112.988 7.21442C111.892 7.66871 110.896 8.33496 110.057 9.17512C109.218 10.0153 108.552 11.0129 108.098 12.111C107.643 13.2092 107.409 14.3863 107.408 15.5752C107.409 16.7641 107.643 17.9413 108.098 19.0394C108.552 20.1375 109.218 21.1352 110.057 21.9753C110.896 22.8155 111.892 23.4817 112.988 23.936C114.084 24.3903 115.258 24.6238 116.444 24.623C118.84 24.6245 121.137 23.6722 122.832 21.9754C124.527 20.2787 125.48 17.9765 125.482 15.5752C125.481 14.3861 125.247 13.2088 124.792 12.1106C124.337 11.0124 123.671 10.0147 122.832 9.17454C121.992 8.33437 120.996 7.66818 119.9 7.21398C118.804 6.75979 117.631 6.5265 116.444 6.52743Z" fill="#005EB8"/>
</svg>
